# xmcd
#
# Track frame offsets: 
#        150
#        18689
#        37057
#        62747
#        88102
#        116182
#        135252
#        156532
#        176308
#        202644
#        228183
#        254889
#
# Disc length: 3674 seconds
#
# Revision: 0
# Processed by: cddbd v1.5.2PL0 Copyright (c) Steve Scherf et al.
# Submitted via: ExactAudioCopy v1.0b3
#
DISCID=a40e580c
DTITLE=Mai Hau - Mua Rung
DYEAR=2006
DGENRE=
TTITLE0=Mua rung
TTITLE1=Ta da ve
TTITLE2=Ta on
TTITLE3=Yeu dau Ha Tien
TTITLE4=Chiec ao ba ba
TTITLE5=Sau dong
TTITLE6=Phuong buon
TTITLE7=Mua mua qua di
TTITLE8=Song que 2
TTITLE9=Chuyen hop tan
TTITLE10=Tinh Hue
TTITLE11=Tieng dan ai
EXTD=
EXTT0=
EXTT1=
EXTT2=
EXTT3=
EXTT4=
EXTT5=
EXTT6=
EXTT7=
EXTT8=
EXTT9=
EXTT10=
EXTT11=
PLAYORDER=
